<svg xmlns="http://www.w3.org/2000/svg" fill="none" viewBox="0 0 1070 104" height="104" width="1070">
<path fill="black" d="M94.8799 4.76041V99.2404H65.3999V66.7304H29.8799V99.2404H0.399902V4.76041H29.8799V37.2204H65.3999V4.76041H94.8799ZM134.85 34.2404V43.1604H197.73V60.8304H134.85V69.7504H199.85V99.2304H105.37V4.7504H199.85V34.2304H134.85V34.2404ZM306.85 69.7604V99.2404H210.34V4.76041H239.82V69.7604H306.85ZM409.8 69.7604V99.2404H315.32V4.76041H344.8V69.7604H409.8ZM482.92 84.7204H452.13L447.14 99.2404H415.03L451.42 4.76041H483.88L520.01 99.2404H487.9L482.91 84.7204H482.92ZM476.98 67.2204L467.62 39.9304L458.17 67.2204H476.98ZM631.18 43.1404V52.0004C631.18 82.4104 609.99 103.6 579.58 103.6C549.17 103.6 527.98 82.4104 527.98 52.0004C527.98 21.5904 550.72 0.400391 583.32 0.400391C594.55 0.400391 609.53 5.33039 618.39 12.0904L605.7 38.3004C600.04 34.1904 590.45 31.1804 583.23 31.1804C568.8 31.1804 558.75 39.7604 558.75 52.0004C558.75 64.2404 567.33 72.8204 579.57 72.8204C588.43 72.8204 595.37 68.3504 598.57 61.2204H572.27V43.1404H631.18ZM747.14 52.0004C747.14 21.5904 768.33 0.400391 798.74 0.400391C829.15 0.400391 850.34 21.5904 850.34 52.0004C850.34 82.4104 829.15 103.6 798.74 103.6C768.33 103.6 747.14 82.4104 747.14 52.0004ZM824.02 47.5504C824.02 35.3104 815.44 26.7304 803.2 26.7304C790.96 26.7304 782.38 35.3104 782.38 47.5504C782.38 59.7904 790.96 68.3704 803.2 68.3704C815.44 68.3704 824.02 59.7904 824.02 47.5504ZM638.02 52.0004C638.02 21.5904 659.21 0.400391 689.62 0.400391C720.03 0.400391 741.22 21.5904 741.22 52.0004C741.22 82.4104 720.03 103.6 689.62 103.6C659.21 103.6 638.02 82.4104 638.02 52.0004ZM714.9 47.5504C714.9 35.3104 706.32 26.7304 694.08 26.7304C681.84 26.7304 673.26 35.3104 673.26 47.5504C673.26 59.7904 681.84 68.3704 694.08 68.3704C706.32 68.3704 714.9 59.7904 714.9 47.5504ZM959.93 52.0004C959.93 81.0404 939.66 101.32 910.61 101.32H859.01V2.6904H910.61C939.65 2.6904 959.93 22.9604 959.93 52.0104V52.0004ZM929.06 52.0004C929.06 41.1304 921.48 33.4604 910.61 33.4604H889.79V70.5404H910.61C921.48 70.5404 929.06 62.8704 929.06 52.0004ZM1068.41 71.6404C1068.41 89.5404 1048.96 103.15 1017.91 103.15C997.45 103.15 973.24 95.6304 959.72 85.1204L975.98 60.9204C986.21 67.7704 1004.85 73.9204 1017.91 73.9204C1027.04 73.9204 1031.97 72.3704 1031.97 69.4504C1031.97 60.7704 967.58 65.9804 967.58 32.3704C967.58 14.4704 987.03 0.860382 1018.08 0.860382C1038.35 0.860382 1055.98 6.1604 1069.59 16.5704L1053.33 40.8604C1043.1 34.0104 1031.14 30.0804 1018.08 30.0804C1009.04 30.0804 1004.11 31.6304 1004.11 34.5604C1004.11 43.2404 1068.4 37.9404 1068.4 71.6404H1068.41Z"></path>
</svg>
