<svg xmlns="http://www.w3.org/2000/svg" fill="none" viewBox="0 0 4384 1711" height="1711" width="4384">
<path fill="black" d="M873.712 0V808.549H621.439V530.297H317.484V808.549H65.2115V0H317.484V277.765H621.439V0H873.712ZM1175.64 252.329V328.677H1713.7V479.912H1175.64V556.261H1731.86V808.549H923.362V0H1731.86V252.288H1175.64V252.329ZM2596.43 556.261V808.549H1770.58V0H2022.86V556.261H2596.43ZM3437.23 556.261V808.549H2628.73V0H2881.01V556.261H3437.23ZM4037.46 684.294H3773.94L3731.28 808.59H3456.53L3767.96 0.0405483H4045.71L4354.91 808.59H4080.17L4037.51 684.294H4037.46ZM3986.6 534.563L3906.51 300.966L3825.66 534.563H3986.6ZM883.098 1193.62V1269.45C883.098 1529.7 701.806 1711 441.569 1711C181.333 1711 0 1529.7 0 1269.45C0 1009.19 194.578 827.89 473.586 827.89C569.717 827.89 697.865 870.108 773.68 927.928L665.035 1152.22C616.563 1117.03 534.531 1091.27 472.773 1091.27C349.298 1091.27 263.324 1164.73 263.324 1269.49C263.324 1374.24 336.784 1447.66 441.529 1447.66C517.344 1447.66 576.746 1409.38 604.09 1348.39H378.999V1193.67H883.057L883.098 1193.62ZM1777 1269.45C1777 1009.19 1958.3 827.89 2218.53 827.89C2478.77 827.89 2660.06 1009.19 2660.06 1269.45C2660.06 1529.7 2478.77 1711 2218.53 1711C1958.3 1711 1777 1529.7 1777 1269.45ZM2434.85 1231.33C2434.85 1126.62 2361.39 1053.12 2256.68 1053.12C2151.98 1053.12 2078.48 1126.58 2078.48 1231.33C2078.48 1336.08 2151.94 1409.51 2256.68 1409.51C2361.43 1409.51 2434.85 1336.04 2434.85 1231.33ZM890.614 1269.45C890.614 1009.19 1071.91 827.89 1332.14 827.89C1592.38 827.89 1773.67 1009.19 1773.67 1269.45C1773.67 1529.7 1592.38 1711 1332.14 1711C1071.91 1711 890.614 1529.7 890.614 1269.45ZM1548.46 1231.33C1548.46 1126.62 1475 1053.12 1370.29 1053.12C1265.59 1053.12 1192.09 1126.58 1192.09 1231.33C1192.09 1336.08 1265.55 1409.51 1370.29 1409.51C1475.04 1409.51 1548.46 1336.04 1548.46 1231.33ZM3532.19 1269.45C3532.19 1518 3358.7 1691.5 3110.16 1691.5H2668.63V847.435H3110.16C3358.7 847.435 3532.19 1020.94 3532.19 1269.49V1269.45ZM3268.05 1269.45C3268.05 1176.44 3203.2 1110.77 3110.2 1110.77H2932.04V1428.07H3110.2C3203.2 1428.07 3268.05 1362.41 3268.05 1269.4V1269.45ZM4384 1437.46C4384 1590.65 4217.54 1707.1 3951.82 1707.1C3776.74 1707.1 3572.41 1636.89 3456.74 1547.01L3578.38 1345.75C3665.9 1404.39 3869.17 1467.98 3980.95 1467.98C4059.08 1467.98 4101.29 1454.69 4101.29 1429.7C4101.29 1355.46 3521.18 1389.07 3521.18 1101.47C3521.18 948.285 3687.64 831.831 3953.36 831.831C4126.85 831.831 4240.53 885.71 4356.98 974.777L4291.36 1167.94C4203.85 1109.31 4024.06 1044.02 3912.32 1044.02C3834.96 1044.02 3788.56 1077.5 3793.68 1101.96C3821.19 1233.53 4383.96 1149.09 4383.96 1437.5L4384 1437.46Z"></path>
</svg>
